C:\Users\r0593348\3dpredictsim\Results\Batchsim_tmt_linear_v2\Pog_s1_tmt_aCst_d02_k500_ig24_pas_GRF.mot
nRows=30
nColumns=19

name C:\Users\r0593348\3dpredictsim\Results\Batchsim_tmt_linear_v2\Pog_s1_tmt_aCst_d02_k500_ig24_pas_GRF.mot
datacolumns 19
datarows 30
range 0.5435940335 0.8588785730
endheader
time 	ground_force_vx	ground_force_vy	ground_force_vz	ground_force_px	ground_force_py	ground_force_pz	1_ground_force_vx	1_ground_force_vy	1_ground_force_vz	1_ground_force_px	1_ground_force_py	1_ground_force_pz	ground_torque_x	ground_torque_y	ground_torque_z	1_ground_torque_x	1_ground_torque_y	1_ground_torque_z
        0.5435940335	      113.7159554332	      470.8719114952	       -2.3210647987	        0.3279001280	        0.0000000000	        0.0462037264	      -74.7777652799	       58.9208368468	      -19.1456641147	        0.8441289892	        0.0000000000	       -0.0446263977	        0.0000000000	        0.0000000000	        0.0000000000	        0.0000000000	        0.0000000000	        0.0000000000	
        0.5544659142	       79.7150988972	      368.8734061958	        3.8051667470	        0.3422372974	        0.0000000000	        0.0440067704	     -130.2189864617	      136.2296451075	      -50.9234448270	        0.8518200370	        0.0000000000	       -0.0429699467	        0.0000000000	        0.0000000000	        0.0000000000	        0.0000000000	        0.0000000000	        0.0000000000	
        0.5653377949	       41.0338130859	      260.5823564792	        7.1885071433	        0.3660350206	        0.0000000000	        0.0397719824	      -63.3747944710	      285.2211216643	      -21.8240196784	        0.8580647619	        0.0000000000	       -0.0412629737	        0.0000000000	        0.0000000000	        0.0000000000	        0.0000000000	        0.0000000000	        0.0000000000	
        0.5762096756	       12.5851888830	      174.9252141092	        8.4380890888	        0.3982800910	        0.0000000000	        0.0323762344	      -64.7681568019	      468.8316573612	       -1.1028947141	        0.8628082778	        0.0000000000	       -0.0417470422	        0.0000000000	        0.0000000000	        0.0000000000	        0.0000000000	        0.0000000000	        0.0000000000	
        0.5870815562	       -1.4892879959	      140.7769123623	       11.6317039416	        0.4089122374	        0.0000000000	        0.0290043703	     -101.6825692192	      712.2560557323	       10.8109544919	        0.8729525613	        0.0000000000	       -0.0446998235	        0.0000000000	        0.0000000000	        0.0000000000	        0.0000000000	        0.0000000000	        0.0000000000	
        0.5979534369	       -1.8018238700	      107.2764197392	       12.2569354485	        0.4094806258	        0.0000000000	        0.0291541664	     -129.1448257712	      882.8604120177	       17.1565011777	        0.8801578014	        0.0000000000	       -0.0467511307	        0.0000000000	        0.0000000000	        0.0000000000	        0.0000000000	        0.0000000000	        0.0000000000	
        0.6088253176	       -4.3038926152	       69.6257065154	       11.6564435769	        0.4100113864	        0.0000000000	        0.0292890406	     -135.0830180272	      933.8785233601	       18.6149807222	        0.8850882682	        0.0000000000	       -0.0480391311	        0.0000000000	        0.0000000000	        0.0000000000	        0.0000000000	        0.0000000000	        0.0000000000	
        0.6196971982	       -8.5379818179	       29.1586216984	        6.5225992202	        0.4097677226	        0.0000000000	        0.0291629744	     -126.8214979036	      908.3137543506	       18.0503700797	        0.8889338944	        0.0000000000	       -0.0489206655	        0.0000000000	        0.0000000000	        0.0000000000	        0.0000000000	        0.0000000000	        0.0000000000	
        0.6305690789	        0.1416157001	       -0.1413670580	       -0.0108871591	        0.0000000000	        0.0000000000	        0.0000000000	     -113.1990055063	      862.1203087391	       17.1956927333	        0.8926015104	        0.0000000000	       -0.0495709321	        0.0000000000	        0.0000000000	        0.0000000000	        0.0000000000	        0.0000000000	        0.0000000000	
        0.6414409596	        0.0002601273	       -0.0002130586	        0.0000044726	        0.0000000000	        0.0000000000	        0.0000000000	      -99.9154306189	      820.6832619849	       16.8933147941	        0.8968494670	        0.0000000000	       -0.0502889353	        0.0000000000	        0.0000000000	        0.0000000000	        0.0000000000	        0.0000000000	        0.0000000000	
        0.6523128403	        0.0001360508	       -0.0000973661	        0.0000047609	        0.0000000000	        0.0000000000	        0.0000000000	      -92.0818345592	      791.4430355569	       17.4016191008	        0.9025087882	        0.0000000000	       -0.0507796803	        0.0000000000	        0.0000000000	        0.0000000000	        0.0000000000	        0.0000000000	        0.0000000000	
        0.6631847209	        0.0011477210	       -0.0007362618	        0.0000498172	        0.0000000000	        0.0000000000	        0.0000000000	      -83.5659661150	      758.9322941440	       17.0317630328	        0.9084522260	        0.0000000000	       -0.0509498977	        0.0000000000	        0.0000000000	        0.0000000000	        0.0000000000	        0.0000000000	        0.0000000000	
        0.6740566016	        0.0065113246	       -0.0038273709	        0.0003089363	        0.0000000000	        0.0000000000	        0.0000000000	      -74.8952417625	      722.1048975864	       16.7956136960	        0.9141598903	        0.0000000000	       -0.0510264504	        0.0000000000	        0.0000000000	        0.0000000000	        0.0000000000	        0.0000000000	        0.0000000000	
        0.6849284823	       -0.0538118339	        0.0294298837	       -0.0026834302	        0.0000000000	        0.0000000000	        0.0000000000	      -66.7339167676	      688.9869516553	       16.4905620655	        0.9197748828	        0.0000000000	       -0.0509888381	        0.0000000000	        0.0000000000	        0.0000000000	        0.0000000000	        0.0000000000	        0.0000000000	
        0.6958003629	       -0.0379256619	        0.0195130608	       -0.0019555196	        0.0000000000	        0.0000000000	        0.0000000000	      -59.0762177725	      662.4414666543	       16.4967798422	        0.9252428076	        0.0000000000	       -0.0509257964	        0.0000000000	        0.0000000000	        0.0000000000	        0.0000000000	        0.0000000000	        0.0000000000	
        0.7066722436	       -0.0271178987	        0.0132390715	       -0.0014254847	        0.0000000000	        0.0000000000	        0.0000000000	      -51.9698106325	      641.6138444514	       16.7081900002	        0.9304706467	        0.0000000000	       -0.0508527718	        0.0000000000	        0.0000000000	        0.0000000000	        0.0000000000	        0.0000000000	        0.0000000000	
        0.7175441243	       -0.0243447993	        0.0113508097	       -0.0012951613	        0.0000000000	        0.0000000000	        0.0000000000	      -46.0680221653	      625.8813191900	       17.1511501994	        0.9354152745	        0.0000000000	       -0.0507525843	        0.0000000000	        0.0000000000	        0.0000000000	        0.0000000000	        0.0000000000	        0.0000000000	
        0.7284160050	       -0.0282413712	        0.0126449947	       -0.0015186496	        0.0000000000	        0.0000000000	        0.0000000000	      -41.6975046427	      614.6194791617	       17.7778827734	        0.9399993607	        0.0000000000	       -0.0506233080	        0.0000000000	        0.0000000000	        0.0000000000	        0.0000000000	        0.0000000000	        0.0000000000	
        0.7392878856	       -0.0407625809	        0.0176202937	       -0.0022190981	        0.0000000000	        0.0000000000	        0.0000000000	      -37.8019302936	      606.6160815729	       18.5967174849	        0.9442539772	        0.0000000000	       -0.0504712071	        0.0000000000	        0.0000000000	        0.0000000000	        0.0000000000	        0.0000000000	        0.0000000000	
        0.7501597663	       -0.0687961652	        0.0288493199	       -0.0038056170	        0.0000000000	        0.0000000000	        0.0000000000	      -34.0064439040	      600.2388783194	       19.6114748676	        0.9482328468	        0.0000000000	       -0.0502975353	        0.0000000000	        0.0000000000	        0.0000000000	        0.0000000000	        0.0000000000	        0.0000000000	
        0.7610316470	       -0.1266437783	        0.0517383034	       -0.0071242089	        0.0000000000	        0.0000000000	        0.0000000000	      -30.3152765424	      594.5657159518	       20.2546934905	        0.9519424449	        0.0000000000	       -0.0501198631	        0.0000000000	        0.0000000000	        0.0000000000	        0.0000000000	        0.0000000000	        0.0000000000	
        0.7719035276	       -0.2374052362	        0.0948593156	       -0.0134980608	        0.0000000000	        0.0000000000	        0.0000000000	      -26.7383885151	      588.8985578309	       20.4810377003	        0.9553861472	        0.0000000000	       -0.0499484344	        0.0000000000	        0.0000000000	        0.0000000000	        0.0000000000	        0.0000000000	        0.0000000000	
        0.7827754083	       -0.4275409987	        0.1677020400	       -0.0244469526	        0.0000000000	        0.0000000000	        0.0000000000	      -23.2663381902	      582.5137919763	       20.5368702130	        0.9585560387	        0.0000000000	       -0.0497798168	        0.0000000000	        0.0000000000	        0.0000000000	        0.0000000000	        0.0000000000	        0.0000000000	
        0.7936472890	       -0.7153318994	        0.2762436923	       -0.0409764753	        0.0000000000	        0.0000000000	        0.0000000000	      -19.6223889692	      575.3127225740	       20.4276608820	        0.9614794625	        0.0000000000	       -0.0496176028	        0.0000000000	        0.0000000000	        0.0000000000	        0.0000000000	        0.0000000000	        0.0000000000	
        0.8045191696	       -1.1025617410	        0.4200253958	       -0.0630881329	        0.0000000000	        0.0000000000	        0.0000000000	      -15.8664054870	      567.3381005372	       20.1688045803	        0.9641676597	        0.0000000000	       -0.0494591413	        0.0000000000	        0.0000000000	        0.0000000000	        0.0000000000	        0.0000000000	        0.0000000000	
        0.8153910503	       -1.5583785645	        0.5867649536	       -0.0886847167	        0.0000000000	        0.0000000000	        0.0000000000	      -12.0384187345	      559.0014128051	       19.6458564098	        0.9665741291	        0.0000000000	       -0.0493062373	        0.0000000000	        0.0000000000	        0.0000000000	        0.0000000000	        0.0000000000	        0.0000000000	
        0.8262629310	       -2.0010806642	        0.7462659236	       -0.1122364481	        0.0000000000	        0.0000000000	        0.0000000000	       -7.8274385953	      551.9761226759	       18.8909760320	        0.9685938118	        0.0000000000	       -0.0491511857	        0.0000000000	        0.0000000000	        0.0000000000	        0.0000000000	        0.0000000000	        0.0000000000	
        0.8371348117	       -2.3104039752	        0.8551467070	       -0.1260290831	        0.0000000000	        0.0000000000	        0.0000000000	       -2.9706200958	      547.1557568066	       17.9773697586	        0.9701685626	        0.0000000000	       -0.0489841909	        0.0000000000	        0.0000000000	        0.0000000000	        0.0000000000	        0.0000000000	        0.0000000000	
        0.8480066923	       -2.3680763199	        0.8714520927	       -0.1233866159	        0.0000000000	        0.0000000000	        0.0000000000	        2.1994914788	      543.9362505544	       16.6210725865	        0.9714857222	        0.0000000000	       -0.0488166736	        0.0000000000	        0.0000000000	        0.0000000000	        0.0000000000	        0.0000000000	        0.0000000000	
        0.8588785730	       -2.1088534326	        0.7726749406	       -0.1020319289	        0.0000000000	        0.0000000000	        0.0000000000	        7.6057471726	      541.8550732319	       14.8558446851	        0.9727027676	        0.0000000000	       -0.0486538022	        0.0000000000	        0.0000000000	        0.0000000000	        0.0000000000	        0.0000000000	        0.0000000000	
